<svg width="26" height="25" viewBox="0 0 26 25" fill="none" xmlns="http://www.w3.org/2000/svg">
<path fill-rule="evenodd" clip-rule="evenodd" d="M2.78689 16.9657C-0.377256 9.1991 5.33644 0.70163 13.7228 0.70163H14.1753C20.4471 0.70163 25.5315 5.78598 25.5315 12.0578C25.5315 19.0408 19.8706 24.7016 12.8877 24.7016H1.87966C1.43167 24.7016 1.03247 24.4189 0.883784 23.9963C0.7351 23.5737 0.869317 23.1033 1.21861 22.8228L3.99373 20.5941C4.11507 20.4967 4.15799 20.3311 4.09928 20.187L2.78689 16.9657ZM13.7228 2.81307C6.83596 2.81307 2.14389 9.79116 4.74228 16.169L6.05466 19.3903C6.46569 20.3992 6.16522 21.5582 5.31583 22.2404L4.88025 22.5902H12.8877C18.7045 22.5902 23.42 17.8747 23.42 12.0578C23.42 6.9521 19.281 2.81307 14.1753 2.81307H13.7228Z" fill="#666666"/>
</svg>
